<?xml version="1.0" standalone="no"?>
<!DOCTYPE svg PUBLIC "-//W3C//DTD SVG 20010904//EN"
 "http://www.w3.org/TR/2001/REC-SVG-20010904/DTD/svg10.dtd">
<svg version="1.0" xmlns="http://www.w3.org/2000/svg"
 width="279.000000pt" height="125.000000pt" viewBox="0 0 279.000000 125.000000"
 preserveAspectRatio="xMidYMid meet">

<g transform="translate(0.000000,125.000000) scale(0.100000,-0.100000)"
fill="#000000" stroke="none">
<path d="M123 1240 c-44 -10 -103 -57 -103 -81 0 -10 -4 -19 -10 -19 -16 0
-13 -878 2 -895 30 -33 38 -45 38 -54 0 -6 18 -20 40 -31 36 -18 58 -20 284
-20 l246 0 14 -33 c7 -19 34 -50 58 -70 l45 -37 680 0 679 0 44 37 c23 20 49
52 56 70 l14 33 231 0 c217 0 234 1 265 21 19 11 34 27 34 35 0 8 6 14 13 14
34 0 37 46 36 488 -1 240 -4 448 -8 462 -4 14 -17 30 -29 36 -12 6 -31 19 -43
30 -21 18 -56 19 -1288 21 -696 0 -1281 -2 -1298 -7z m2544 -60 c51 -31 54
-56 51 -505 l-3 -405 -33 -32 -32 -33 -219 -4 -218 -3 -19 38 c-11 21 -38 53
-62 71 l-44 33 -669 0 c-557 0 -675 -2 -697 -14 -36 -19 -78 -65 -92 -100
l-10 -28 -233 3 -234 4 -36 30 c-20 17 -38 43 -42 60 -3 17 -5 210 -3 430 l3
401 25 25 c14 15 34 31 45 37 14 8 377 11 1255 12 1207 0 1236 -1 1267 -20z
m-1269 -903 c14 -16 -101 -217 -124 -217 -20 0 -28 24 -14 49 l11 21 -320 0
-321 0 -6 25 c-14 57 -25 55 350 55 l345 0 12 23 c14 28 40 57 49 57 4 0 12
-6 18 -13z m493 -67 l309 0 6 -25 c14 -56 21 -55 -316 -55 -304 0 -310 0 -310
-20 0 -19 -5 -18 -70 15 -38 19 -70 40 -70 45 0 5 30 25 68 44 62 31 67 33 70
15 3 -18 17 -19 313 -19z"/>
<path d="M812 1039 c-73 -36 -111 -118 -93 -199 12 -55 51 -94 132 -135 36
-19 80 -45 97 -60 60 -50 66 -138 14 -188 -78 -75 -182 -22 -228 115 -9 27
-22 48 -30 48 -11 0 -14 -20 -14 -100 0 -102 4 -110 38 -89 14 9 26 8 52 -6
44 -23 143 -30 200 -15 60 16 113 72 129 135 27 109 -36 204 -174 261 -94 38
-146 105 -124 161 15 41 38 62 74 69 62 11 125 -45 155 -138 6 -21 18 -38 26
-38 11 0 14 20 14 95 0 96 -8 113 -37 84 -9 -9 -22 -8 -53 5 -56 22 -126 20
-178 -5z"/>
<path d="M1150 1042 c0 -4 16 -14 35 -21 43 -15 39 -9 181 -348 92 -222 112
-263 129 -263 18 0 30 30 95 225 41 124 77 225 80 225 3 0 39 -101 80 -225 66
-200 77 -225 95 -223 16 2 42 57 132 272 61 148 120 281 131 295 10 14 32 33
50 41 17 8 32 18 32 23 0 4 -52 7 -115 7 -70 0 -115 -4 -115 -10 0 -5 8 -10
18 -10 29 0 55 -36 54 -72 -1 -33 -131 -368 -142 -368 -8 0 -120 358 -120 383
0 25 36 57 65 57 14 0 25 5 25 10 0 6 -58 10 -155 10 -97 0 -155 -4 -155 -10
0 -5 8 -10 18 -10 35 -1 72 -48 72 -92 0 -35 -102 -350 -111 -341 -10 11 -159
373 -159 388 0 19 34 45 58 45 12 0 22 5 22 10 0 6 -57 10 -150 10 -82 0 -150
-4 -150 -8z"/>
</g>
</svg>
